<svg viewBox="0 0 512 512" xmlns="http://www.w3.org/2000/svg" fill-rule="evenodd" clip-rule="evenodd" stroke-linejoin="round" stroke-miterlimit="2"><g fill-rule="nonzero"><path d="M199.101 494.119c-7.912-1.876-14.536-6.264-23.804-15.772-15.48-15.884-28.048-22.496-49.884-26.256-22.656-3.9-32.72-12.32-38.772-32.432-7.472-24.824-15.28-36.712-32.436-49.384-19.464-14.376-24.456-27.056-19.708-50.028 4.4-21.276 2.716-36.404-6.22-55.856-10.664-23.204-9.348-35.604 5.796-54.62 13.884-17.428 18.24-28.952 20.32-53.724 2.096-25.004 9.052-35.26 29.54-43.56 17.096-6.928 31.724-18.956 39.832-32.752 9.376-15.956 10.744-17.784 16.556-22.12 9.376-6.996 16.956-8.932 31.392-8.028 25.08 1.572 38.52-1.44 55.36-12.404 21.956-14.292 35.272-14.292 57.228 0 16.844 10.964 30.284 13.976 55.36 12.404 23.716-1.488 33.584 4.736 48.04 30.308 7.164 12.668 21.804 25 37.832 31.86 22.824 9.768 29.456 18.684 31.14 41.852 1.824 25.092 6.968 39.12 20.596 56.164 15.176 18.98 16.5 31.392 5.828 54.62-8.932 19.452-10.62 34.58-6.22 55.856 4.752 22.972-.244 35.652-19.704 50.028-17.156 12.672-24.964 24.56-32.436 49.384-6.052 20.112-16.12 28.532-38.772 32.432-21.888 3.768-34.464 10.4-49.888 26.308-17.096 17.628-29.352 20.54-53.252 12.636-19.548-6.46-34.6-6.488-54.068-.096-13.64 4.476-20.908 5.256-29.656 3.18z" fill-opacity=".2"/><path d="M199.101 489.435c-7.912-1.88-14.536-6.268-23.804-15.776-15.48-15.88-28.048-22.496-49.884-26.252-22.656-3.9-32.72-12.324-38.772-32.432-7.472-24.828-15.28-36.716-32.436-49.388-19.464-14.376-24.456-27.052-19.708-50.028 4.4-21.276 2.716-36.404-6.22-55.856-10.664-23.204-9.348-35.604 5.796-54.616 13.884-17.432 18.24-28.952 20.32-53.728 2.096-25.004 9.052-35.26 29.54-43.56 17.096-6.928 31.724-18.956 39.832-32.752 9.376-15.956 10.744-17.784 16.556-22.12 9.376-6.996 16.956-8.932 31.392-8.028 25.08 1.572 38.52-1.44 55.36-12.404 21.956-14.292 35.272-14.292 57.228 0 16.844 10.964 30.284 13.976 55.36 12.404 23.716-1.488 33.584 4.736 48.04 30.308 7.164 12.668 21.804 25 37.832 31.86 22.824 9.768 29.456 18.684 31.14 41.852 1.824 25.092 6.968 39.12 20.596 56.168 15.176 18.976 16.5 31.388 5.828 54.616-8.932 19.452-10.62 34.58-6.22 55.856 4.752 22.976-.244 35.652-19.704 50.028-17.156 12.672-24.964 24.56-32.436 49.388-6.052 20.108-16.12 28.532-38.772 32.432-21.888 3.764-34.464 10.4-49.888 26.304-17.096 17.632-29.352 20.54-53.252 12.64-19.548-6.464-34.6-6.492-54.068-.1-13.64 4.476-20.908 5.256-29.656 3.184z" fill="#fff"/><path d="M339.709 236.271c-1.476-3.016-.212-6.628 2.8-8.104 3.012-1.476 6.628-.212 8.104 2.8 1.476 3.012.212 6.628-2.8 8.104-3.012 1.476-6.628.212-8.104-2.8zm29.308 60.24c-1.476-3.012-.212-6.628 2.8-8.104 3.012-1.476 6.628-.208 8.104 2.804 1.476 3.012.212 6.624-2.8 8.1s-6.628.212-8.104-2.8zm2.56-78.164c-19.276-13.764-44.428-17.32-67.712-8.312l63.644 130.872c21.448-12.74 34.16-34.756 35.244-58.404l24.156 1.72a2.507 2.507 0 002.68-2.352 2.503 2.503 0 00-2.348-2.68l-24.46-1.748c-.24-10.3-2.708-20.812-7.62-30.932-4.908-10.092-11.656-18.524-19.608-25.092l13.736-20.332a2.515 2.515 0 00-4.156-2.832l-13.556 20.064" fill="#3ddc84"/><path d="M312.901 267.623c-17.952 8.676-37.26 13.072-57.38 13.072a132.032 132.032 0 01-110.512-59.636c-1.896-2.892-5.812-3.584-8.612-1.536l-23.104 17.016c-2.62 1.928-3.224 5.604-1.388 8.316a172.751 172.751 0 00143.616 76.564c26.296 0 51.568-5.752 75.092-17.108l-17.712-36.688zM242.813 122.835h25v-27.62c0-6.9-5.604-12.5-12.5-12.5-6.9 0-12.5 5.6-12.5 12.5v27.62z" fill="#4285f4"/><path d="M222.781 176.751l-85.936 176.868a29.306 29.306 0 00-2.952 12.228l-.512 23.164c-.12 5.996 6.808 9.368 11.448 5.572l17.892-14.7a29.343 29.343 0 007.8-9.876l84.7-174.372-32.412-18.856-.028-.028zM376.757 365.819c-.088-4.248-1.112-8.404-2.952-12.228l-85.932-176.872-32.412 18.916 84.7 174.308a29.645 29.645 0 007.8 9.88l17.892 14.7c4.64 3.796 11.596.42 11.448-5.572l-.512-23.164-.032.032z" fill="#4285f4"/><path d="M255.309 120.635c-20.692 0-37.5 16.84-37.5 37.5 0 20.664 16.84 37.5 37.5 37.5 20.664 0 37.5-16.836 37.5-37.5 0-20.66-16.836-37.5-37.5-37.5zm0 58.132c-11.352 0-20.632-9.244-20.632-20.632 0-11.384 9.248-20.632 20.632-20.632 11.388 0 20.636 9.248 20.636 20.632 0 11.388-9.248 20.632-20.636 20.632z" fill="#073042"/></g></svg>