<svg width="57.8" height="72.301" viewBox="0 0 57.8 72.301" xmlns="http://www.w3.org/2000/svg">
    <defs>
        <linearGradient id="Gradient">
            <stop stop-color="#6600FF" offset="0%" />
            <stop stop-color="#ff00bf" offset="100%" />
        </linearGradient>
    </defs>

    <g id="Chirag" stroke-linecap="round" fill-rule="evenodd" font-size="9pt" stroke="#000" stroke-width="0"
        fill="url(#Gradient)">
        <path
            d="M 56.8 5.3 L 52.3 17.9 A 32.831 32.831 0 0 0 48.604 16.235 A 44.243 44.243 0 0 0 44.85 15 A 30.86 30.86 0 0 0 40.01 14.064 A 41.877 41.877 0 0 0 35.2 13.8 Q 31.6 13.8 28.15 15 Q 24.7 16.2 22.05 18.85 Q 19.4 21.5 17.8 25.7 A 22.656 22.656 0 0 0 16.679 29.876 Q 16.2 32.619 16.2 35.9 A 38.88 38.88 0 0 0 16.611 41.646 A 32.822 32.822 0 0 0 17.25 44.85 A 20.558 20.558 0 0 0 18.899 49.264 A 17.325 17.325 0 0 0 20.65 52 A 15.89 15.89 0 0 0 25.537 56.112 A 19.171 19.171 0 0 0 26.8 56.75 Q 30.304 58.363 35.166 58.489 A 32.19 32.19 0 0 0 36 58.5 A 49.624 49.624 0 0 0 39.13 58.406 Q 40.61 58.313 41.926 58.125 A 30.229 30.229 0 0 0 42.1 58.1 Q 44.8 57.7 46.9 57.15 Q 48.967 56.609 50.549 55.923 A 18.126 18.126 0 0 0 50.6 55.9 Q 52.2 55.2 53.5 54.6 L 57.8 67.1 Q 54.5 69.1 48.5 70.7 A 44.952 44.952 0 0 1 42.242 71.875 Q 39.12 72.247 35.611 72.293 A 76.216 76.216 0 0 1 34.6 72.3 A 48.504 48.504 0 0 1 24.488 71.312 Q 18.226 69.976 13.51 66.836 A 26.717 26.717 0 0 1 8.85 62.9 A 30.608 30.608 0 0 1 1.849 50.363 Q 0 44.107 0 36.2 Q 0 27.6 2.7 20.85 A 34.925 34.925 0 0 1 6.981 13.063 A 30.616 30.616 0 0 1 10.1 9.45 Q 14.8 4.8 21.3 2.4 A 39.263 39.263 0 0 1 32.474 0.092 A 46.198 46.198 0 0 1 35.4 0 Q 39.8 0 43.4 0.65 A 64.17 64.17 0 0 1 46.378 1.257 Q 47.844 1.594 49.121 1.973 A 36.336 36.336 0 0 1 49.7 2.15 A 42.418 42.418 0 0 1 51.599 2.795 Q 53.075 3.338 54.2 3.9 Q 56 4.8 56.8 5.3 Z"
            vector-effect="non-scaling-stroke" />
    </g>
</svg>