<?xml version="1.0" encoding="utf-8"?>
<svg viewBox="-18.458 -22.75 191.151 191.151" xmlns="http://www.w3.org/2000/svg">
    <path
        d="M 32.518 90.393 L 24.706 90.393 C 24.428 77.206 23.668 64.808 22.423 53.191 L 22.354 53.191 L 10.459 90.393 L 4.511 90.393 L -7.313 53.191 L -7.381 53.191 C -8.257 64.345 -8.811 76.746 -9.04 90.393 L -16.161 90.393 C -15.702 73.798 -14.548 58.239 -12.706 43.715 L -3.022 43.715 L 8.248 78.014 L 8.317 78.014 L 19.657 43.715 L 28.921 43.715 C 30.95 60.726 32.149 76.287 32.518 90.393 M 66.4 55.954 C 63.22 73.215 59.022 85.758 53.814 93.588 C 49.755 99.615 45.309 102.631 40.468 102.631 C 39.177 102.631 37.584 102.241 35.698 101.469 L 35.698 97.306 C 36.62 97.439 37.703 97.515 38.946 97.515 C 41.208 97.515 43.025 96.892 44.411 95.645 C 46.069 94.127 46.898 92.42 46.898 90.531 C 46.898 89.236 46.251 86.588 44.962 82.578 L 36.389 55.953 L 44.064 55.953 L 50.218 75.866 C 51.6 80.387 52.177 83.544 51.947 85.342 C 55.311 76.355 57.661 66.555 59.001 55.951 L 66.4 55.951 L 66.4 55.954 Z"
        fill="#5d87a1" transform="matrix(1, 0, 0, 1, -7.105427357601002e-15, 0)" />
    <path
        d="M 170.396 90.393 L 148.203 90.393 L 148.203 43.715 L 155.669 43.715 L 155.669 84.647 L 170.396 84.647 L 170.396 90.393 Z M 142.393 91.521 L 133.813 87.286 C 134.573 86.662 135.301 85.985 135.956 85.202 C 139.604 80.917 141.423 74.581 141.423 66.188 C 141.423 50.746 135.363 43.02 123.238 43.02 C 117.294 43.02 112.656 44.98 109.339 48.901 C 105.694 53.188 103.875 59.502 103.875 67.85 C 103.875 76.055 105.488 82.073 108.713 85.892 C 111.665 89.351 116.115 91.082 122.064 91.082 C 124.283 91.082 126.32 90.81 128.176 90.262 L 139.347 96.766 L 142.393 91.521 Z M 114.595 81.052 C 112.705 78.012 111.761 73.129 111.761 66.398 C 111.761 54.645 115.331 48.761 122.479 48.761 C 126.216 48.761 128.954 50.169 130.706 52.977 C 132.592 56.022 133.543 60.86 133.543 67.498 C 133.543 79.349 129.969 85.274 122.824 85.274 C 119.087 85.275 116.348 83.873 114.595 81.052 M 100.622 77.455 C 100.622 81.413 99.169 84.662 96.267 87.205 C 93.363 89.738 89.468 91.008 84.588 91.008 C 80.022 91.008 75.596 89.549 71.311 86.648 L 73.317 82.64 C 77.004 84.486 80.342 85.404 83.339 85.404 C 86.152 85.404 88.349 84.78 89.944 83.544 C 91.536 82.303 92.486 80.562 92.486 78.361 C 92.486 75.587 90.552 73.218 87.004 71.232 C 83.733 69.436 77.19 65.68 77.19 65.68 C 73.644 63.095 71.868 60.32 71.868 55.748 C 71.868 51.965 73.192 48.912 75.841 46.588 C 78.494 44.255 81.917 43.093 86.112 43.093 C 90.445 43.093 94.383 44.254 97.932 46.552 L 96.132 50.562 C 93.098 49.272 90.102 48.627 87.148 48.627 C 84.755 48.627 82.907 49.203 81.622 50.357 C 80.327 51.509 79.528 52.98 79.528 54.786 C 79.528 57.545 81.503 59.946 85.147 61.97 C 88.463 63.769 95.169 67.59 95.169 67.59 C 98.806 70.17 100.622 72.92 100.622 77.455"
        fill="#f8981d" transform="matrix(1, 0, 0, 1, -7.105427357601002e-15, 0)" />
</svg>