<svg xmlns="http://www.w3.org/2000/svg" viewBox="0 0 508.29 507.77">
    <defs>
        <style>
            .a {
                fill: #010101;
            }

            .b {
                fill: #fff;
            }
        </style>
    </defs>
    <title>socket-io-icon</title>
    <path class="a"
        d="M189.78,8C255.55-8.85,328.23,1,386.23,36.77c73,43.69,120.73,126.32,122,211.38,2.67,85.91-42.11,171.09-114.06,217.81-80.09,53.87-190.87,55.93-272.66,4.73C38.1,420.94-10.55,320.59,2,224.24,12,122.44,90.65,32.65,189.78,8Z" />
    <path class="b"
        d="M179.71,49.64C304-.12,456.37,91.74,469.23,225c20,119.89-79.48,241.71-200.94,245.23C152.77,481.73,41.14,383.81,37.86,267.81,29.25,173.89,91.13,80.7,179.71,49.64Z" />
    <path class="a"
        d="M192.21,241c55.69-45.5,110.17-92.58,167.08-136.75-29.85,45.87-60.55,91.13-90.4,137-25.6.12-51.2.12-76.68-.24Zm47.08,25.36c25.72,0,51.32,0,76.93.36C260.16,312,205.92,359.42,148.89,403.47c29.85-45.87,60.55-91.25,90.4-137.12Z" />
</svg>