<?xml version="1.0" encoding="utf-8"?>
<svg viewBox="0 0 500 500" xmlns="http://www.w3.org/2000/svg">
    <path
        d="M 338.626 235.31 C 339.873 235.847 340.449 237.294 339.912 238.541 L 336.573 246.297 L 336.951 246.491 L 334.674 251.755 L 334.31 251.553 L 322.347 279.339 C 321.5 281.306 319.325 282.34 317.265 281.755 L 298.665 276.47 C 296.737 275.923 295.769 273.769 296.64 271.963 L 315.387 233.086 C 316.198 231.404 318.067 230.508 319.886 230.93 L 338.188 235.169 C 338.338 235.202 338.485 235.249 338.626 235.31 Z"
        fill="#3f3d56" />
    <path
        d="M 323.145 233.926 L 332.766 236.154 C 333.122 236.237 333.489 236.07 333.662 235.747 C 333.857 235.382 334.272 235.193 334.676 235.287 L 336.702 235.756 C 337.88 236.029 338.524 237.301 338.047 238.412 L 320.734 278.709 C 320.289 279.745 319.138 280.281 318.059 279.955 L 299.589 274.383 C 298.588 274.081 298.09 272.959 298.538 272.013 L 316.837 233.384 C 317.392 232.212 318.69 231.585 319.954 231.877 L 322.09 232.372 C 321.982 233.086 322.441 233.763 323.145 233.926 Z"
        style="fill: rgb(255, 255, 255);" />
    <polygon points="277.339 445.314 288.771 445.313 294.208 401.217 277.335 401.218 277.339 445.314" fill="#ffb8b8" />
    <path
        d="M 274.888 442.046 L 310.818 442.046 C 310.818 442.046 310.818 442.046 310.818 442.046 L 310.818 455.928 C 310.818 455.928 310.818 455.928 310.818 455.928 L 288.77 455.928 C 281.104 455.928 274.888 449.713 274.888 442.046 C 274.888 442.046 274.888 442.046 274.888 442.046 Z"
        fill="#2f2e41" style="transform-origin: 292.853px 448.987px;"
        transform="matrix(-1, 0.000090000016, -0.000090000016, -1, 0.000005164632, 0.000063999753)" />
    <polygon points="215.717 445.314 227.15 445.313 232.586 401.217 215.713 401.218 215.717 445.314" fill="#ffb8b8" />
    <path
        d="M 213.268 442.046 L 249.198 442.046 C 249.198 442.046 249.198 442.046 249.198 442.046 L 249.198 455.928 C 249.198 455.928 249.198 455.928 249.198 455.928 L 227.15 455.928 C 219.483 455.928 213.268 449.713 213.268 442.046 C 213.268 442.046 213.268 442.046 213.268 442.046 Z"
        fill="#2f2e41" style="transform-origin: 231.233px 448.987px;"
        transform="matrix(-1, 0.000090000016, -0.000090000016, -1, 0.000033843042, 0.00001136609)" />
    <circle cx="249.198" cy="107.278" r="24.561" fill="#ffb8b8" />
    <path
        d="M 333.181 267.456 C 332.45 261.664 326.662 257.94 321.089 259.676 L 307.362 243.222 L 295.329 249.125 L 315.039 272.089 C 317.651 278.86 326.614 280.265 331.172 274.617 C 332.794 272.606 333.521 270.017 333.181 267.456 Z"
        fill="#ffb8b8" />
    <path
        d="M 215.047 284.097 C 217.538 278.818 214.651 272.57 209.016 271.045 L 206.26 249.795 L 192.938 248.32 L 197.251 278.275 C 195.823 285.39 202.633 291.384 209.51 289.063 C 211.958 288.236 213.96 286.441 215.047 284.097 Z"
        fill="#ffb8b8" />
    <path
        d="M 196.404 271.104 C 194.174 271.103 192.281 269.47 191.953 267.264 L 185.395 223.106 C 184.572 217.547 185.238 211.87 187.327 206.653 L 207.458 156.413 C 211.061 147.421 223.047 145.701 229.032 153.317 C 229.044 153.332 229.055 153.346 229.067 153.361 C 231.931 157.03 232.532 161.982 230.627 166.229 L 221.136 187.457 C 210.493 211.272 206.477 237.519 209.513 263.426 C 209.766 265.584 208.441 267.615 206.364 268.252 L 197.725 270.905 C 197.297 271.037 196.851 271.104 196.404 271.104 Z"
        style="fill: rgb(140, 0, 239); stroke: #2f2e41;" />
    <path
        d="M 243.218 131.838 C 223.05 132.273 209.974 110.713 219.68 93.03 C 225.249 82.885 236.812 77.594 248.128 80.012 C 253.53 76.733 259.809 74.526 266.103 75.087 C 272.397 75.649 278.622 79.385 280.975 85.25 C 283.329 91.114 280.8 98.844 274.948 101.227 C 271.196 102.755 266.959 102.014 262.955 101.398 C 258.952 100.782 254.584 100.379 251.099 102.445 C 247.615 104.511 246.048 110.051 249.169 112.634 C 252.556 115.548 253.785 120.256 252.253 124.454 C 250.685 128.51 246.404 131.769 243.218 131.838 Z"
        fill="#2f2e41" />
    <path
        d="M 212.389 436.43 C 209.857 436.431 207.822 434.343 207.889 431.811 L 212.258 265.995 L 212.734 265.985 L 284.961 264.41 L 297.431 425.646 C 297.571 427.662 296.354 429.527 294.45 430.208 L 294.313 430.236 L 280.138 431.102 C 277.605 431.957 274.89 430.428 274.307 427.82 L 251.2 324.423 C 250.948 323.296 249.57 322.865 248.72 323.647 C 248.472 323.875 248.308 324.181 248.255 324.515 L 231.183 431.904 C 230.842 434 229.089 435.575 226.969 435.692 L 212.616 436.424 C 212.541 436.428 212.465 436.43 212.389 436.43 Z"
        fill="#2f2e41" />
    <path
        d="M 233.646 279.72 C 224.658 279.72 216.809 278.362 212.475 274.488 C 209.69 271.998 208.485 268.612 208.895 264.424 C 210.435 248.681 207.766 214.176 205.256 188.002 C 204.094 175.602 207.956 163.255 215.976 153.726 C 223.694 144.493 234.839 138.799 246.844 137.955 C 255.113 137.366 274.475 135.993 280.494 151.408 C 289.535 174.564 285.113 185.183 280.837 195.453 C 277.204 204.177 273.447 213.199 278.052 230.141 C 280.596 239.51 283.677 248.724 287.279 257.739 C 289.773 264.134 291.024 267.343 289.869 269.439 C 288.957 271.093 286.683 271.813 282.806 272.564 C 281.539 272.809 279.866 273.165 277.873 273.589 C 267.74 275.742 249.026 279.72 233.646 279.72 Z"
        style="fill: rgb(140, 0, 239); stroke: #2f2e41;" />
    <path
        d="M 307.437 265.207 C 307.403 265.207 307.368 265.207 307.334 265.206 C 306.023 265.177 304.79 264.576 303.958 263.562 L 278.499 232.538 C 273.063 225.91 269.483 217.958 268.126 209.493 L 260.287 160.502 C 258.757 150.937 268.155 143.302 277.204 146.759 C 281.569 148.427 284.65 152.376 285.207 157.015 L 288.323 183 C 291.205 207.003 300.514 229.783 315.268 248.934 L 317.049 251.245 C 318.375 252.965 318.282 255.388 316.828 257.003 L 310.781 263.718 C 309.928 264.666 308.713 265.208 307.437 265.207 Z"
        style="fill: rgb(140, 0, 239); stroke: #2f2e41;" />
</svg>