<?xml version="1.0" encoding="utf-8"?>
<svg viewBox="0 0 500 500" xmlns="http://www.w3.org/2000/svg">
    <path
        d="M 323.626 235.31 C 324.873 235.847 325.449 237.294 324.912 238.541 L 321.573 246.297 L 321.951 246.491 L 319.674 251.755 L 319.31 251.553 L 307.347 279.339 C 306.5 281.306 304.325 282.34 302.265 281.755 L 283.665 276.47 C 281.737 275.923 280.769 273.769 281.64 271.963 L 300.387 233.086 C 301.198 231.404 303.067 230.508 304.886 230.93 L 323.188 235.169 C 323.338 235.202 323.485 235.249 323.626 235.31 Z"
        fill="#3f3d56" />
    <path
        d="M 308.145 233.926 L 317.766 236.154 C 318.122 236.237 318.489 236.07 318.662 235.747 C 318.857 235.382 319.272 235.193 319.676 235.287 L 321.702 235.756 C 322.88 236.029 323.524 237.301 323.047 238.412 L 305.734 278.709 C 305.289 279.745 304.138 280.281 303.059 279.955 L 284.589 274.383 C 283.588 274.081 283.09 272.959 283.538 272.013 L 301.837 233.384 C 302.392 232.212 303.69 231.585 304.954 231.877 L 307.09 232.372 C 306.982 233.086 307.441 233.763 308.145 233.926 Z"
        style="fill: rgb(255, 255, 255);" />
    <polygon points="262.339 445.314 273.771 445.313 279.208 401.217 262.335 401.218 262.339 445.314" fill="#ffb8b8" />
    <path
        d="M 259.888 442.046 L 295.818 442.046 C 295.818 442.046 295.818 442.046 295.818 442.046 L 295.818 455.928 C 295.818 455.928 295.818 455.928 295.818 455.928 L 273.77 455.928 C 266.104 455.928 259.888 449.713 259.888 442.046 C 259.888 442.046 259.888 442.046 259.888 442.046 Z"
        fill="#2f2e41" transform="matrix(-1, 0.00009, -0.00009, -1, 555.746399, 897.948975)" />
    <polygon points="200.717 445.314 212.15 445.313 217.586 401.217 200.713 401.218 200.717 445.314" fill="#ffb8b8" />
    <path
        d="M 198.268 442.046 L 234.198 442.046 C 234.198 442.046 234.198 442.046 234.198 442.046 L 234.198 455.928 C 234.198 455.928 234.198 455.928 234.198 455.928 L 212.15 455.928 C 204.483 455.928 198.268 449.713 198.268 442.046 C 198.268 442.046 198.268 442.046 198.268 442.046 Z"
        fill="#2f2e41" transform="matrix(-1, 0.00009, -0.00009, -1, 432.506409, 897.954529)" />
    <circle cx="234.198" cy="107.278" r="24.561" fill="#ffb8b8" />
    <path
        d="M 318.181 267.456 C 317.45 261.664 311.662 257.94 306.089 259.676 L 292.362 243.222 L 280.329 249.125 L 300.039 272.089 C 302.651 278.86 311.614 280.265 316.172 274.617 C 317.794 272.606 318.521 270.017 318.181 267.456 Z"
        fill="#ffb8b8" />
    <path
        d="M 200.047 284.097 C 202.538 278.818 199.651 272.57 194.016 271.045 L 191.26 249.795 L 177.938 248.32 L 182.251 278.275 C 180.823 285.39 187.633 291.384 194.51 289.063 C 196.958 288.236 198.96 286.441 200.047 284.097 Z"
        fill="#ffb8b8" />
    <path
        d="M 181.404 271.104 C 179.174 271.103 177.281 269.47 176.953 267.264 L 170.395 223.106 C 169.572 217.547 170.238 211.87 172.327 206.653 L 192.458 156.413 C 196.061 147.421 208.047 145.701 214.032 153.317 C 214.044 153.332 214.055 153.346 214.067 153.361 C 216.931 157.03 217.532 161.982 215.627 166.229 L 206.136 187.457 C 195.493 211.272 191.477 237.519 194.513 263.426 C 194.766 265.584 193.441 267.615 191.364 268.252 L 182.725 270.905 C 182.297 271.037 181.851 271.104 181.404 271.104 Z"
        style="fill: rgb(140, 0, 239); stroke: #2f2e41;" />
    <path
        d="M 228.218 131.838 C 208.05 132.273 194.974 110.713 204.68 93.03 C 210.249 82.885 221.812 77.594 233.128 80.012 C 238.53 76.733 244.809 74.526 251.103 75.087 C 257.397 75.649 263.622 79.385 265.975 85.25 C 268.329 91.114 265.8 98.844 259.948 101.227 C 256.196 102.755 251.959 102.014 247.955 101.398 C 243.952 100.782 239.584 100.379 236.099 102.445 C 232.615 104.511 231.048 110.051 234.169 112.634 C 237.556 115.548 238.785 120.256 237.253 124.454 C 235.685 128.51 231.404 131.769 228.218 131.838 Z"
        fill="#2f2e41" />
    <path
        d="M 197.389 436.43 C 194.857 436.431 192.822 434.343 192.889 431.811 L 197.258 265.995 L 197.734 265.985 L 269.961 264.41 L 282.431 425.646 C 282.571 427.662 281.354 429.527 279.45 430.208 L 279.313 430.236 L 265.138 431.102 C 262.605 431.957 259.89 430.428 259.307 427.82 L 236.2 324.423 C 235.948 323.296 234.57 322.865 233.72 323.647 C 233.472 323.875 233.308 324.181 233.255 324.515 L 216.183 431.904 C 215.842 434 214.089 435.575 211.969 435.692 L 197.616 436.424 C 197.541 436.428 197.465 436.43 197.389 436.43 Z"
        fill="#2f2e41" />
    <path
        d="M 218.646 279.72 C 209.658 279.72 201.809 278.362 197.475 274.488 C 194.69 271.998 193.485 268.612 193.895 264.424 C 195.435 248.681 192.766 214.176 190.256 188.002 C 189.094 175.602 192.956 163.255 200.976 153.726 C 208.694 144.493 219.839 138.799 231.844 137.955 C 240.113 137.366 259.475 135.993 265.494 151.408 C 274.535 174.564 270.113 185.183 265.837 195.453 C 262.204 204.177 258.447 213.199 263.052 230.141 C 265.596 239.51 268.677 248.724 272.279 257.739 C 274.773 264.134 276.024 267.343 274.869 269.439 C 273.957 271.093 271.683 271.813 267.806 272.564 C 266.539 272.809 264.866 273.165 262.873 273.589 C 252.74 275.742 234.026 279.72 218.646 279.72 Z"
        style="fill: rgb(140, 0, 239); stroke: #2f2e41;" />
    <path
        d="M 292.437 265.207 C 292.403 265.207 292.368 265.207 292.334 265.206 C 291.023 265.177 289.79 264.576 288.958 263.562 L 263.499 232.538 C 258.063 225.91 254.483 217.958 253.126 209.493 L 245.287 160.502 C 243.757 150.937 253.155 143.302 262.204 146.759 C 266.569 148.427 269.65 152.376 270.207 157.015 L 273.323 183 C 276.205 207.003 285.514 229.783 300.268 248.934 L 302.049 251.245 C 303.375 252.965 303.282 255.388 301.828 257.003 L 295.781 263.718 C 294.928 264.666 293.713 265.208 292.437 265.207 Z"
        style="fill: rgb(140, 0, 239); stroke: #2f2e41;" />
</svg>