<?xml version="1.0" encoding="UTF-8"?>
<svg xmlns="http://www.w3.org/2000/svg" xmlns:xlink="http://www.w3.org/1999/xlink" width="30px" height="22px"
    viewBox="0 0 30 22" version="1.1">
    <g id="surface1">
        <path style=" stroke:none;fill-rule:nonzero;fill:rgb(100%,100%,100%);fill-opacity:1;"
            d="M 24.957031 1.863281 C 28.207031 6.65625 29.8125 12.058594 29.210938 18.277344 C 29.210938 18.304688 29.195312 18.328125 29.175781 18.34375 C 26.714844 20.15625 24.332031 21.257812 21.980469 21.984375 C 21.941406 21.996094 21.902344 21.984375 21.878906 21.949219 C 21.335938 21.191406 20.84375 20.394531 20.410156 19.554688 C 20.386719 19.507812 20.410156 19.445312 20.460938 19.425781 C 21.242188 19.132812 21.988281 18.777344 22.703125 18.355469 C 22.761719 18.324219 22.765625 18.242188 22.710938 18.203125 C 22.5625 18.089844 22.410156 17.972656 22.265625 17.851562 C 22.238281 17.828125 22.203125 17.824219 22.171875 17.839844 C 17.519531 19.996094 12.421875 19.996094 7.714844 17.839844 C 7.683594 17.828125 7.648438 17.832031 7.621094 17.851562 C 7.480469 17.972656 7.328125 18.089844 7.175781 18.203125 C 7.125 18.242188 7.128906 18.324219 7.1875 18.355469 C 7.902344 18.769531 8.648438 19.132812 9.429688 19.429688 C 9.480469 19.449219 9.503906 19.507812 9.480469 19.554688 C 9.058594 20.394531 8.5625 21.195312 8.011719 21.953125 C 7.988281 21.984375 7.945312 21.996094 7.910156 21.984375 C 5.570312 21.257812 3.1875 20.15625 0.726562 18.34375 C 0.707031 18.328125 0.691406 18.304688 0.691406 18.277344 C 0.1875 12.898438 1.210938 7.449219 4.9375 1.863281 C 4.949219 1.847656 4.960938 1.835938 4.976562 1.828125 C 6.8125 0.984375 8.777344 0.363281 10.832031 0.0078125 C 10.871094 0.00390625 10.90625 0.0195312 10.925781 0.0546875 C 11.179688 0.503906 11.46875 1.082031 11.667969 1.554688 C 13.832031 1.222656 16.03125 1.222656 18.242188 1.554688 C 18.4375 1.09375 18.71875 0.503906 18.972656 0.0546875 C 18.992188 0.0195312 19.027344 0.00390625 19.066406 0.0078125 C 21.121094 0.363281 23.085938 0.984375 24.921875 1.828125 C 24.9375 1.835938 24.949219 1.847656 24.957031 1.863281 Z M 12.769531 12.09375 C 12.789062 10.503906 11.632812 9.1875 10.183594 9.1875 C 8.742188 9.1875 7.597656 10.492188 7.597656 12.09375 C 7.597656 13.695312 8.765625 15 10.183594 15 C 11.621094 15 12.769531 13.695312 12.769531 12.09375 Z M 22.324219 12.09375 C 22.347656 10.503906 21.191406 9.1875 19.742188 9.1875 C 18.300781 9.1875 17.15625 10.492188 17.15625 12.09375 C 17.15625 13.695312 18.324219 15 19.742188 15 C 21.191406 15 22.324219 13.695312 22.324219 12.09375 Z M 22.324219 12.09375 " />
    </g>
</svg>