<svg xmlns="http://www.w3.org/2000/svg" version="1.2" viewBox="60 217.5 941.44 646.5">
	<title>Piktures</title>
	<style>
		.s0 {
			opacity: 1;
			fill-opacity: .5;
			fill: #00aeae
		}

		.s1 {
			fill: #00aeae
		}
	</style>
	<path id="Shape 2" class="s0"
		d="m575 388l55-89c0 0 3.5-5.6 8-10 4.1-4 9-7 9-7 0 0 3.8-2.6 8-4 5.2-1.8 11-2 11-2 0 0 3.5 0.3 7 1 3.6 0.8 7 2 7 2 0 0 3.8 1.7 7 4 7.3 5.2 12.9 12.6 12.9 12.6l8.1 11.4 13 22 269 461c0 0 4.2 6.2 7 13 2.6 6.3 4 13 4 13 0 0 1 6.2 0 12-1 5.7-4 11-4 11 0 0-1.8 4.7-5 8-3.6 3.8-9 6-9 6 0 0-4.9 1.9-10 3-7.8 1.8-16 2-16 2l-108-1z">
	</path>
	<path id="Shape 1" class="s1"
		d="m813 861l-717 3c0 0-5.8-2-11-5-6.4-3.7-12-9-12-9 0 0-4.1-5.7-7-12-3.3-7.1-5-15-5-15 0 0-1-7-1-14 0-7 1-14 1-14l15-27 298-531c0 0 3.2-3.8 7-7 4.6-3.9 10-7 10-7 0 0 5.2-2.9 10.8-4.3 5.3-1.2 10.8-1.2 10.8-1.2 0 0 5.4 0.8 10.4 2.5 5.7 1.9 11 5 11 5 0 0 4.3 3.2 8 7 5.7 5.9 10 13 10 13z">
	</path>
</svg>