<svg version="1.2" xmlns="http://www.w3.org/2000/svg" viewBox="0 0 1281 1494">
<style>.a{fill:#1e8bf5;stroke:none;stroke-width:30}</style>
<path class="a" d="m466.8 315.8c-61.7 85.6-38.5 217.3-7.5 292.5 14 34 30.3 56.3 62.2 99.7 96.2 130.7 195.7 214.8 296.3 339.8 11.7 14.5 27.6 38.2 36.9 70.5 16.6 58.6 0.5 108-9.9 139.6-9.3 28.4-32.5 96.7-99 147-65.5 49.6-134.2 53.5-195 57-21.4 1.2-102.5 4.5-195-27-188.2-64.1-286.6-225.3-315-276 60.2 35.7 160.2 80.6 282 72 55.6-4 128.8-8.6 162-60 39.5-61.2-1.4-151.5-19.6-191.6-19.9-44.1-44.9-74.2-94.7-134.4-37.5-45.3-48.3-52-82.9-92.9 0 0-59.1-69.7-101.8-140.7-49.5-82.5-136.2-305.2-25-454.5 77.5-104.2 225.5-138.4 307.1-140.8 4.7-0.2 8.4-0.2 10.9-0.3 124.6-1.3 214.9 52.3 249 75.1 101.7 67.9 146.3 158.3 162 195-167.3-98.1-351.9-68.5-423 30z"/><path class="a" d="m1045.9 372.8c17.2 73.6 33.2 131.3 45 171 2 6.8 20.3 69 24 147 0.9 21 0.8 42.3-12 63-17.9 28.8-49.4 38.7-63 42-4.8-17.2-14.1-43.8-33-72-19-28.2-38.1-56.5-72.1-63-2.2-0.4-42.2-7.5-66 18-23.4 25.1-14.4 63.9-9 87 4.2 17.8 16.1 69.2 66 96 44.5 23.9 88.8 12.1 99.1 9 31.4-16.1 68.2-39.1 105-72 14.7-13.1 27.6-26.3 39-39 3.3-4.9 17.8-25.3 37.7-25.2 22.8 0.1 40 27.1 49.5 42 4.1 6.5 7 12.3 8.9 16.6q-10.5 188.2-20.9 376.4c-12.4 11.6-36.1 30.2-70.5 37.5-11.1 2.3-21.2 3-30 3 0.4-12.4 2.6-31.5 12-52.5 6-13.5 13.3-24 19.5-31.5 1.4 0.2 18.8 3.1 25.5-6 2.4-3.4 3.5-8.5 4.2-11.6 1.1-4.7 1.2-8.7 1.2-11.5q0.7-98 1.3-196c-0.9-9-9-14.3-15.3-12.7-4.7 1.3-8.6 6.4-8.7 12.7-12 63.4-37.1 153.1-93.3 248-93.6 158-221.3 242.4-288 280 10.1-10.3 172.1-179.2 115-331-7-18.5-18.2-39.6-37-61q-159-184-318-368c-1.8-2.8-3.9-6.6-5.1-11.4-3.3-13.2 1.9-24.4 3.8-27.9 28.7-50.6 80.2-122.2 165.3-170.7 47.3-27 82.9-34.3 92-36 69.5-13.2 127.4 4.7 156 16 2.9 2.2 20.7 15.4 37.5 9 5.8-2.2 10-6.2 14-11.5 16.1-21.1 19.6-48.4 20.4-63.7z"/>
</svg>