<!-- <svg stroke="currentColor" fill="none" stroke-width="1.5" viewBox="0 0 24 24" aria-hidden="true" height="1em"
    width="1em" xmlns="http://www.w3.org/2000/svg" style="color: #fff">
    <path stroke-linecap="round" stroke-linejoin="round"
        d="M13.5 6H5.25A2.25 2.25 0 003 8.25v10.5A2.25 2.25 0 005.25 21h10.5A2.25 2.25 0 0018 18.75V10.5m-10.5 6L21 3m0 0h-5.25M21 3v5.25">
    </path>
</svg> -->

<svg stroke="currentColor" fill="currentColor" stroke-width="0" viewBox="0 0 16 16" height="1em" width="1em"
    xmlns="http://www.w3.org/2000/svg" style="color: #fff">
    <path fill-rule="evenodd"
        d="M8.636 3.5a.5.5 0 0 0-.5-.5H1.5A1.5 1.5 0 0 0 0 4.5v10A1.5 1.5 0 0 0 1.5 16h10a1.5 1.5 0 0 0 1.5-1.5V7.864a.5.5 0 0 0-1 0V14.5a.5.5 0 0 1-.5.5h-10a.5.5 0 0 1-.5-.5v-10a.5.5 0 0 1 .5-.5h6.636a.5.5 0 0 0 .5-.5z">
    </path>
    <path fill-rule="evenodd"
        d="M16 .5a.5.5 0 0 0-.5-.5h-5a.5.5 0 0 0 0 1h3.793L6.146 9.146a.5.5 0 1 0 .708.708L15 1.707V5.5a.5.5 0 0 0 1 0v-5z">
    </path>
</svg>