<svg width="24" height="24" viewBox="0 0 24 24" fill="none" xmlns="http://www.w3.org/2000/svg">
    <path
        d="M 18 12.951 C 17.735 12.951 17.48 13.056 17.293 13.244 C 17.105 13.431 17 13.686 17 13.951 L 17 19 C 17 19.265 16.895 19.52 16.707 19.707 C 16.52 19.895 16.265 20 16 20 L 5 20 C 4.735 20 4.48 19.895 4.293 19.707 C 4.105 19.52 4 19.265 4 19 L 4 8 C 4 7.735 4.105 7.48 4.293 7.293 C 4.48 7.105 4.735 7 5 7 L 10.093 7 C 10.358 7 10.613 6.895 10.8 6.707 C 10.988 6.52 11.093 6.265 11.093 6 C 11.093 5.735 10.988 5.48 10.8 5.293 C 10.613 5.105 10.358 5 10.093 5 L 5 5 C 4.204 5 3.441 5.316 2.879 5.879 C 2.316 6.441 2 7.204 2 8 L 2 19 C 2 19.796 2.316 20.559 2.879 21.121 C 3.441 21.684 4.204 22 5 22 L 16 22 C 16.796 22 17.559 21.684 18.121 21.121 C 18.684 20.559 19 19.796 19 19 L 19 13.951 C 19 13.686 18.895 13.431 18.707 13.244 C 18.52 13.056 18.265 12.951 18 12.951 Z M 21.92 2.62 C 21.819 2.376 21.624 2.181 21.38 2.08 C 21.26 2.029 21.131 2.002 21 2 L 15 2 C 14.735 2 14.48 2.105 14.293 2.293 C 14.105 2.48 14 2.735 14 3 C 14 3.265 14.105 3.52 14.293 3.707 C 14.48 3.895 14.735 4 15 4 L 18.59 4 L 8.29 14.29 C 8.196 14.383 8.122 14.494 8.071 14.615 C 8.02 14.737 7.994 14.868 7.994 15 C 7.994 15.132 8.02 15.263 8.071 15.385 C 8.122 15.506 8.196 15.617 8.29 15.71 C 8.383 15.804 8.494 15.878 8.615 15.929 C 8.737 15.98 8.868 16.006 9 16.006 C 9.132 16.006 9.263 15.98 9.385 15.929 C 9.506 15.878 9.617 15.804 9.71 15.71 L 20 5.41 L 20 9 C 20 9.265 20.105 9.52 20.293 9.707 C 20.48 9.895 20.735 10 21 10 C 21.265 10 21.52 9.895 21.707 9.707 C 21.895 9.52 22 9.265 22 9 L 22 3 C 21.998 2.869 21.971 2.74 21.92 2.62 Z"
        fill="#fff"></path>
</svg>